<?xml version="1.0" standalone="no"?>
<!DOCTYPE svg PUBLIC "-//W3C//DTD SVG 20010904//EN"
 "http://www.w3.org/TR/2001/REC-SVG-20010904/DTD/svg10.dtd">
<svg version="1.0" xmlns="http://www.w3.org/2000/svg"
 width="180.000000pt" height="180.000000pt" viewBox="0 0 180.000000 180.000000"
 preserveAspectRatio="xMidYMid meet">

<g transform="translate(0.000000,180.000000) scale(0.100000,-0.100000)"
fill="#000000" stroke="none">
<path d="M745 1746 c-281 -55 -504 -229 -624 -488 -60 -129 -75 -201 -75 -358
0 -157 15 -229 75 -358 90 -195 227 -331 422 -422 128 -59 201 -74 357 -74
157 0 229 15 358 75 195 90 331 227 422 422 59 128 74 201 74 357 0 157 -15
229 -75 358 -66 143 -169 267 -292 351 -67 46 -199 105 -277 125 -89 23 -277
29 -365 12z m665 -346 c0 -6 -76 -160 -170 -343 l-170 -332 -334 -170 c-184
-93 -338 -166 -343 -162 -4 5 69 159 162 343 l170 334 330 170 c182 93 336
169 343 170 6 0 12 -5 12 -10z"/>
<path d="M686 791 l-106 -211 210 105 c115 58 210 106 210 108 0 1 -47 49
-104 106 l-104 104 -106 -212z"/>
</g>
</svg>
