<?xml version="1.0" encoding="UTF-8" standalone="no"?>
<!-- Generator: Adobe Illustrator 19.0.0, SVG Export Plug-In . SVG Version: 6.00 Build 0)  -->

<svg
   version="1.1"
   id="Capa_1"
   x="0px"
   y="0px"
   viewBox="0 0 60 60"
   style="enable-background:new 0 0 60 60;"
   xml:space="preserve"
   sodipodi:docname="servers-icon.svg"
   inkscape:version="1.1.1 (3bf5ae0d25, 2021-09-20)"
   xmlns:inkscape="http://www.inkscape.org/namespaces/inkscape"
   xmlns:sodipodi="http://sodipodi.sourceforge.net/DTD/sodipodi-0.dtd"
   xmlns="http://www.w3.org/2000/svg"
   xmlns:svg="http://www.w3.org/2000/svg"><defs
   id="defs83" /><sodipodi:namedview
   id="namedview81"
   pagecolor="#ffffff"
   bordercolor="#666666"
   borderopacity="1.0"
   inkscape:pageshadow="2"
   inkscape:pageopacity="0.0"
   inkscape:pagecheckerboard="0"
   showgrid="false"
   inkscape:zoom="6.9333333"
   inkscape:cx="40.3125"
   inkscape:cy="35.408654"
   inkscape:window-width="1920"
   inkscape:window-height="1017"
   inkscape:window-x="1912"
   inkscape:window-y="-8"
   inkscape:window-maximized="1"
   inkscape:current-layer="g48" />
<g
   id="g48"
   style="fill:#b3b3b3">
	<path
   d="M 10.5,6.2788462 C 8.019,6.2788462 5.2788462,9.019 5.2788462,11.5 c 0,2.481 2.7401538,5.221154 5.2211538,5.221154 2.481,0 5.221154,-2.740154 5.221154,-5.221154 C 15.721154,9.019 12.981,6.2788462 10.5,6.2788462 Z M 10.5,14 C 9.122,14 8,12.879 8,11.5 8,10.121 9.122,9 10.5,9 11.878,9 13,10.121 13,11.5 13,12.879 11.878,14 10.5,14 Z"
   id="path2"
   style="fill:#b3b3b3"
   sodipodi:nodetypes="ssssssssss" />
	<circle
   cx="50"
   cy="10"
   r="1"
   id="circle4"
   style="fill:#b3b3b3" />
	<circle
   cx="46"
   cy="10"
   r="1"
   id="circle6"
   style="fill:#b3b3b3" />
	<circle
   cx="52"
   cy="13"
   r="1"
   id="circle8"
   style="fill:#b3b3b3" />
	<circle
   cx="48"
   cy="13"
   r="1"
   id="circle10"
   style="fill:#b3b3b3" />
	<circle
   cx="42"
   cy="10"
   r="1"
   id="circle12"
   style="fill:#b3b3b3" />
	<circle
   cx="44"
   cy="13"
   r="1"
   id="circle14"
   style="fill:#b3b3b3" />
	<circle
   cx="38"
   cy="10"
   r="1"
   id="circle16"
   style="fill:#b3b3b3" />
	<circle
   cx="40"
   cy="13"
   r="1"
   id="circle18"
   style="fill:#b3b3b3" />
	<circle
   cx="34"
   cy="10"
   r="1"
   id="circle20"
   style="fill:#b3b3b3" />
	<circle
   cx="36"
   cy="13"
   r="1"
   id="circle22"
   style="fill:#b3b3b3" />
	<path
   d="M 60,17.392 V 5.608 C 60,3.067 57.933,1 55.392,1 H 4.608 C 2.067,1 0,3.067 0,5.608 V 17.391 C 0,18.86 0.703,20.156 1.777,21 0.703,21.844 0,23.14 0,24.608 v 11.783 c 0,2.542 2.0670472,5.345636 4.608,5.330154 H 28.278846 V 49.101 C 26.322846,49.5 25.5,49.601692 25.101,51.557692 H 1 C 0.448,51.557692 0,53.447 0,54 c 0,0.553 0.448,1.721154 1,1.721154 H 25.101 C 25.566,58.000154 27.585,59 30,59 c 2.415,0 4.434,-0.999846 4.899,-3.278846 H 59 c 0.552,0 1,-1.168154 1,-1.721154 0,-0.553 -0.448,-2.442308 -1,-2.442308 H 34.899 C 34.5,49.601692 33.677154,49.5 31.721154,49.101 V 41.721154 H 55.392 C 57.933,41.721154 60,38.933 60,36.392 V 24.608 C 60,23.139 59.297,21.844 58.223,21 59.297,20.156 60,18.86 60,17.392 Z M 33,54 c 0,1.654 -1.346,3 -3,3 -1.654,0 -3,-1.346 -3,-3 0,-1.654 1.346,-3 3,-3 1.654,0 3,1.346 3,3 z M 56.557692,24.608 v 11.783 c 0,1.439 0.272308,1.887846 -1.165692,1.887846 H 4.608 C 3.17,38.278846 3.4423076,37.83 3.4423076,36.392 V 24.608 C 3.4423076,23.17 3.17,23.442308 4.608,23.442308 h 50.783 c 1.439,0 1.166692,-0.272308 1.166692,1.165692 z M 4.608,18.557692 C 3.17,18.557692 3.4423076,18.83 3.4423076,17.392 V 5.608 C 3.4423076,4.17 3.17,4.4423076 4.608,4.4423076 h 50.783 c 1.439,0 1.166692,-0.2723076 1.166692,1.1656924 v 11.783 c 0,1.439 0.272308,1.166692 -1.165692,1.166692 z"
   id="path24"
   style="fill:#b3b3b3"
   sodipodi:nodetypes="sssssscssscccssscscssscccssscssssssssssssssssssssssss" />
	<path
   d="m 10.5,35.432692 c 2.481,0 5.076923,-2.451692 5.076923,-4.932692 0,-2.481 -2.595923,-4.932692 -5.076923,-4.932692 -2.481,0 -4.9326923,2.451692 -4.9326923,4.932692 0,2.481 2.4516923,4.932692 4.9326923,4.932692 z M 10.5,28 C 11.878,28 13,29.121 13,30.5 13,31.879 11.878,33 10.5,33 9.122,33 8,31.879 8,30.5 8,29.121 9.122,28 10.5,28 Z"
   id="path26"
   style="fill:#b3b3b3"
   sodipodi:nodetypes="ssssssssss" />
	<circle
   cx="50"
   cy="29"
   r="1"
   id="circle28"
   style="fill:#b3b3b3" />
	<circle
   cx="46"
   cy="29"
   r="1"
   id="circle30"
   style="fill:#b3b3b3" />
	<circle
   cx="52"
   cy="32"
   r="1"
   id="circle32"
   style="fill:#b3b3b3" />
	<circle
   cx="48"
   cy="32"
   r="1"
   id="circle34"
   style="fill:#b3b3b3" />
	<circle
   cx="42"
   cy="29"
   r="1"
   id="circle36"
   style="fill:#b3b3b3" />
	<circle
   cx="44"
   cy="32"
   r="1"
   id="circle38"
   style="fill:#b3b3b3" />
	<circle
   cx="38"
   cy="29"
   r="1"
   id="circle40"
   style="fill:#b3b3b3" />
	<circle
   cx="40"
   cy="32"
   r="1"
   id="circle42"
   style="fill:#b3b3b3" />
	<circle
   cx="34"
   cy="29"
   r="1"
   id="circle44"
   style="fill:#b3b3b3" />
	<circle
   cx="36"
   cy="32"
   r="1"
   id="circle46"
   style="fill:#b3b3b3" />
</g>
<g
   id="g50"
   style="fill:#999999">
</g>
<g
   id="g52"
   style="fill:#999999">
</g>
<g
   id="g54"
   style="fill:#999999">
</g>
<g
   id="g56"
   style="fill:#999999">
</g>
<g
   id="g58"
   style="fill:#999999">
</g>
<g
   id="g60"
   style="fill:#999999">
</g>
<g
   id="g62"
   style="fill:#999999">
</g>
<g
   id="g64"
   style="fill:#999999">
</g>
<g
   id="g66"
   style="fill:#999999">
</g>
<g
   id="g68"
   style="fill:#999999">
</g>
<g
   id="g70"
   style="fill:#999999">
</g>
<g
   id="g72"
   style="fill:#999999">
</g>
<g
   id="g74"
   style="fill:#999999">
</g>
<g
   id="g76"
   style="fill:#999999">
</g>
<g
   id="g78"
   style="fill:#999999">
</g>
</svg>
